<?xml version="1.0" encoding="iso-8859-1"?>
<!-- Generator: Adobe Illustrator 19.0.0, SVG Export Plug-In . SVG Version: 6.00 Build 0)  -->
<svg version="1.1" id="Layer_1" xmlns="http://www.w3.org/2000/svg" xmlns:xlink="http://www.w3.org/1999/xlink" x="0px" y="0px"
	 viewBox="0 0 512 512" style="enable-background:new 0 0 512 512;" xml:space="preserve">
<path style="fill:#A9A8AE;" d="M321.628,446.372c-63.339,0-122.346-31.372-157.846-83.917c-7.196-10.651-4.394-25.117,6.256-32.313
	c10.654-7.194,25.117-4.394,32.313,6.256c26.832,39.717,71.421,63.429,119.277,63.429c79.306,0,143.827-64.521,143.827-143.827
	c0-79.307-64.521-143.827-143.827-143.827c-47.998,0-92.66,23.819-119.471,63.716c-7.173,10.67-21.63,13.504-32.298,6.335
	c-10.667-7.17-13.503-21.63-6.335-32.298c35.475-52.784,94.579-84.298,158.104-84.298C426.598,65.628,512,151.028,512,256
	C512,360.971,426.598,446.372,321.628,446.372z"/>
<path style="fill:#64C37D;" d="M349.088,232.727H79.458l30.09-30.089c9.089-9.089,9.089-23.824,0-32.912
	c-9.087-9.087-23.824-9.087-32.912,0L6.817,239.543c-0.034,0.034-0.062,0.071-0.096,0.105c-0.498,0.504-0.977,1.029-1.429,1.578
	c-0.14,0.169-0.258,0.351-0.391,0.523c-0.334,0.428-0.667,0.858-0.97,1.309c-0.099,0.152-0.185,0.313-0.284,0.467
	c-0.31,0.489-0.616,0.979-0.892,1.491c-0.061,0.112-0.106,0.231-0.166,0.344c-0.289,0.562-0.568,1.13-0.81,1.716
	c-0.033,0.079-0.057,0.163-0.092,0.244c-0.248,0.621-0.483,1.251-0.678,1.898c-0.026,0.087-0.042,0.175-0.067,0.262
	c-0.186,0.638-0.355,1.28-0.487,1.939c-0.039,0.199-0.057,0.402-0.092,0.602c-0.096,0.548-0.192,1.095-0.248,1.655
	C0.04,254.445,0,255.221,0,256c0,0.779,0.04,1.555,0.116,2.324c0.057,0.568,0.155,1.122,0.251,1.676
	c0.034,0.192,0.048,0.389,0.088,0.58c0.133,0.669,0.306,1.322,0.493,1.969c0.023,0.076,0.036,0.157,0.061,0.233
	c0.2,0.656,0.436,1.297,0.69,1.93c0.028,0.068,0.048,0.141,0.076,0.209c0.25,0.6,0.534,1.181,0.83,1.753
	c0.051,0.101,0.095,0.206,0.147,0.307c0.285,0.529,0.602,1.038,0.923,1.542c0.088,0.137,0.163,0.281,0.251,0.414
	c0.321,0.479,0.673,0.936,1.029,1.389c0.113,0.146,0.214,0.299,0.332,0.442c0.483,0.588,0.995,1.153,1.53,1.691l69.815,69.814
	c4.544,4.544,10.501,6.817,16.457,6.817s11.913-2.273,16.455-6.817c9.089-9.089,9.089-23.824,0-32.912l-30.089-30.089h269.63
	c12.853,0,23.273-10.42,23.273-23.273S361.941,232.727,349.088,232.727z"/>
<g>
</g>
<g>
</g>
<g>
</g>
<g>
</g>
<g>
</g>
<g>
</g>
<g>
</g>
<g>
</g>
<g>
</g>
<g>
</g>
<g>
</g>
<g>
</g>
<g>
</g>
<g>
</g>
<g>
</g>
</svg>
