<svg xmlns="http://www.w3.org/2000/svg" width="80" height="80">
  <g fill="none" fill-rule="evenodd">
    <path fill="#AABFF2" d="M70.6860812 61H66V39h4.6860812C74.172744 39 77 41.8022078 77 45.2579806v9.4840388C77 58.1985656 74.172744 61 70.6860812 61"/>
    <path stroke="#1A1C1E" stroke-width="4" d="M70.6860812 61H66V39h4.6860812C74.172744 39 77 41.8022078 77 45.2579806v9.4840388C77 58.1985656 74.172744 61 70.6860812 61z" stroke-linecap="round" stroke-linejoin="round"/>
    <path fill="#7D94DF" d="M70.0002483 56h-2.9997517C65.3430723 56 64 54.5450686 64 52.7502v-6.5004C64 44.4549314 65.3430723 43 67.0004966 43h2.9997517C71.6569277 43 73 44.4549314 73 46.2498v6.5004C73 54.5450686 71.6569277 56 70.0002483 56"/>
    <path fill="#AABFF2" d="M9.31391884 61H14V39H9.31391884C5.82725596 39 3 41.8022078 3 45.2579806v9.4840388C3 58.1985656 5.82725596 61 9.31391884 61"/>
    <path stroke="#1A1C1E" stroke-width="4" d="M9.31391884 61H14V39H9.31391884C5.82725596 39 3 41.8022078 3 45.2579806v9.4840388C3 58.1985656 5.82725596 61 9.31391884 61z" stroke-linecap="round" stroke-linejoin="round"/>
    <path fill="#7D94DF" d="M9.9997517 56h2.9997517C14.6569277 56 16 54.5450686 16 52.7502v-6.5004C16 44.4549314 14.6569277 43 12.9995034 43H9.9997517C8.34307234 43 7 44.4549314 7 46.2498v6.5004C7 54.5450686 8.34307234 56 9.9997517 56"/>
    <path fill="#AABFF2" d="M69.1802836 80.6355814V42.4261228c0-6.78441213-5.4792964-12.28404087-12.2378298-12.28404087H23.2895614c-6.7585333 0-12.2378298 5.49962874-12.2378298 12.28404087v38.2094586"/>
    <path stroke="#1A1C1E" stroke-width="4" d="M69.1802836 80.6355814V42.4261228c0-6.78441213-5.4792964-12.28404087-12.2378298-12.28404087H23.2895614c-6.7585333 0-12.2378298 5.49962874-12.2378298 12.28404087v38.2094586" stroke-linecap="round" stroke-linejoin="round"/>
    <path fill="#CBDAF8" d="M43.5450415 63h-6.0893132C30.5766748 63 25 57.3963578 25 50.4848123v-3.2268317C25 43.8022078 27.7887223 41 31.2278641 41h18.5450415C53.2120475 41 56 43.8022078 56 47.2579806v3.2268317C56 57.3963578 50.4240949 63 43.5450415 63"/>
    <path fill="#AABFF2" d="M45.4931099 57h-2.9862198C41.6741155 57 41 56.3310362 41 55.5062762v-.0132907C41 54.6682254 41.6741155 54 42.5068901 54h2.9862198C46.3251397 54 47 54.6682254 47 55.4929855v.0132907C47 56.3310362 46.3251397 57 45.4931099 57m-9 0h-2.9862198C32.6741155 57 32 56.3310362 32 55.5062762v-.0132907C32 54.6682254 32.6741155 54 33.5068901 54h2.9862198C37.3251397 54 38 54.6682254 38 55.4929855v.0132907C38 56.3310362 37.3251397 57 36.4931099 57"/>
    <path fill="#95D85D" d="M32.4894142 28.12070597c2.0059127-.42907815 3.9525987-1.12490115 5.7668042-2.0653673 1.5897676-.82462264 3.0844609-1.83749095 4.7560548-2.49063478 3.9284405-1.53645038 9.1637635.12117835 10.5797477 4.2564857 2.2280126 6.506288-5.146483 9.6424454-10.559486 9.1234361-5.3077977-.5091016-10.4121987-2.4898727-14.424024-5.96441494-.2252171-.1951048-.45511-.40545217-.5556394-.68286682-.1940452-.5334897.1722248-1.1348088.6717547-1.421369.49953-.28656018 1.0980307-.33990915 1.6731525-.40850068.7021474-.08307197 1.4003983-.19891545 2.0916355-.3467683"/>
    <path stroke="#1A1C1E" stroke-width="4" d="M32.4894142 28.12070597c2.0059127-.42907815 3.9525987-1.12490115 5.7668042-2.0653673 1.5897676-.82462264 3.0844609-1.83749095 4.7560548-2.49063478 3.9284405-1.53645038 9.1637635.12117835 10.5797477 4.2564857 2.2280126 6.506288-5.146483 9.6424454-10.559486 9.1234361-5.3077977-.5091016-10.4121987-2.4898727-14.424024-5.96441494-.2252171-.1951048-.45511-.40545217-.5556394-.68286682-.1940452-.5334897.1722248-1.1348088.6717547-1.421369.49953-.28656018 1.0980307-.33990915 1.6731525-.40850068.7021474-.08307197 1.4003983-.19891545 2.0916355-.3467683z" stroke-linecap="round" stroke-linejoin="round"/>
    <path stroke="#1A1C1E" stroke-width="4" d="M54 25c-2.4238371 2.71326523-5.9340169 4.4870244-9.8825977 4.99351-.0401248.00494476-.0795066.00706395-.1174023.00635755" stroke-linecap="round" stroke-linejoin="round"/>
    <path fill="#1A1C1E" d="M41.4931099 69h-2.9862198C37.6741155 69 37 68.3310362 37 67.5062762v-.0132907C37 66.6682254 37.6741155 66 38.5068901 66h2.9862198C42.3251397 66 43 66.6682254 43 67.4929855v.0132907C43 68.3310362 42.3251397 69 41.4931099 69M61 51c-1.6501117 0-3-1.337763-3-2.9730528v-.0531561C58 46.3385013 59.3498883 45 61 45s3 1.3385013 3 2.9737911v.0531561C64 49.662237 62.6501117 51 61 51m-43 0c-1.6501117 0-3-1.337763-3-2.9730528v-.0531561C15 46.3385013 16.3498883 45 18 45s3 1.3385013 3 2.9737911v.0531561C21 49.662237 19.6501117 51 18 51"/>
  </g>
</svg>