<svg xmlns="http://www.w3.org/2000/svg" width="80" height="80">
  <g fill="none" fill-rule="evenodd">
    <path fill="#FFE36C" d="M44.8847835 6.9491368l7.5801835 14.3832911c.7989799 1.5159222 2.2551852 2.5756854 3.9424318 2.8678115l16.0062915 2.771972c4.3750592.7584219 6.113853 6.1143732 3.0182662 9.3019567L64.1109271 47.9361715c-1.1929469 1.2293253-1.7498395 2.9433772-1.5059113 4.6408414l2.3122551 16.0964214c.6323723 4.4003213-3.9184992 7.7104688-7.9032733 5.7485245l-14.5767803-7.175058c-1.5372078-.7565788-3.337674-.7565788-4.8739613 0l-14.5767803 7.175058c-3.9847741 1.9619443-8.5356456-1.3482032-7.9032733-5.7485245l2.3122551-16.0964214c.2430077-1.6974642-.3129645-3.4115161-1.5068318-4.6408414L4.5675963 36.2741681c-3.0946663-3.1875835-1.35679303-8.5435348 3.0191866-9.3019567l16.00537108-2.771972c1.6872466-.2921261 3.1443724-1.3518893 3.9433522-2.8678115l7.5801835-14.3832911c2.0720089-3.9321824 7.697085-3.9321824 9.7690938 0"/>
    <path stroke="#1A1C1E" stroke-width="4" d="M34 38v10m13-10v10M44.8847835 6.9491368l7.5801835 14.3832911c.7989799 1.5159222 2.2551852 2.5756854 3.9424318 2.8678115l16.0062915 2.771972c4.3750592.7584219 6.113853 6.1143732 3.0182662 9.3019567L64.1109271 47.9361715c-1.1929469 1.2293253-1.7498395 2.9433772-1.5059113 4.6408414l2.3122551 16.0964214c.6323723 4.4003213-3.9184992 7.7104688-7.9032733 5.7485245l-14.5767803-7.175058c-1.5372078-.7565788-3.337674-.7565788-4.8739613 0l-14.5767803 7.175058c-3.9847741 1.9619443-8.5356456-1.3482032-7.9032733-5.7485245l2.3122551-16.0964214c.2430077-1.6974642-.3129645-3.4115161-1.5068318-4.6408414L4.5675963 36.2741681c-3.0946663-3.1875835-1.35679303-8.5435348 3.0191866-9.3019567l16.00537108-2.771972c1.6872466-.2921261 3.1443724-1.3518893 3.9433522-2.8678115l7.5801835-14.3832911c2.0720089-3.9321824 7.697085-3.9321824 9.7690938 0z" stroke-linecap="round" stroke-linejoin="round"/>
  </g>
</svg>